<?xml version="1.0" encoding="utf-8"?>

<!DOCTYPE svg PUBLIC "-//W3C//DTD SVG 1.1//EN" "http://www.w3.org/Graphics/SVG/1.1/DTD/svg11.dtd">
<!-- Uploaded to: SVG Repo, www.svgrepo.com, Generator: SVG Repo Mixer Tools -->
<svg height="800px" width="800px" version="1.1" id="_x32_" xmlns="http://www.w3.org/2000/svg" xmlns:xlink="http://www.w3.org/1999/xlink" 
	 viewBox="0 0 512 512"  xml:space="preserve">
<style type="text/css">
	.st0{fill:#000000;}
</style>
<g>
	<path class="st0" d="M449.322,395.593c-6.546-9.856-14.909-17.41-23.893-23.243c-13.508-8.756-28.425-13.766-41.783-17.425
		c-13.315-3.609-25.33-5.982-32.092-8.548c-8.205-3.052-16.881-7.005-22.936-11.257c-3.022-2.108-5.353-4.282-6.704-6.132
		c-1.365-1.894-1.736-3.202-1.75-4.346c0-7.047,0-1.05,0-12.028c15.924-10.357,28.653-25.08,38.302-43.334
		c10.549-19.927,17.704-44.013,22.306-71.787h13.379v-29.161h-9.827c0.336-5.117,0.514-10.249,0.514-15.381
		c-0.021-35.65-8.262-71.501-28.768-99.21c-10.242-13.83-23.607-25.523-40.267-33.771c-13.723-6.797-29.761-11.078-47.901-12.65V0
		h-31.219v7.462c-15.066,1.744-28.603,5.889-40.532,12.022c-24.279,12.451-41.675,32.906-52.825,56.692
		c-11.172,23.815-16.289,51.032-16.296,77.977c0,4.745,0.186,9.47,0.501,14.18h-9.692v29.161h13.523
		c6.411,35.479,17.646,66.598,35.815,90.07c7.097,9.148,15.359,17.018,24.665,23.478c0,11.729,0,6.226,0,13.601
		c0,0.972-0.386,2.373-1.902,4.374c-2.202,2.973-6.783,6.575-12.222,9.627c-5.425,3.088-11.665,5.753-17.125,7.683
		c-6.118,2.18-16.36,4.26-27.896,7.19c-17.346,4.468-38.03,10.964-54.927,25.109c-8.426,7.061-15.824,16.11-21.006,27.495
		c-5.196,11.393-8.148,25.03-8.14,41.183c0,3.916,0.171,7.976,0.529,12.193c0.236,2.702,1.265,4.903,2.473,6.719
		c2.301,3.373,5.353,5.889,9.177,8.469c6.697,4.432,15.974,8.763,27.852,13.015c35.551,12.679,94.409,24.286,167.346,24.3
		c59.258,0,109.274-7.69,144.975-17.354c17.861-4.846,32.119-10.142,42.426-15.438c5.16-2.674,9.334-5.303,12.644-8.191
		c1.658-1.458,3.109-2.987,4.331-4.802c1.2-1.816,2.237-4.017,2.473-6.719c0.35-4.217,0.522-8.262,0.522-12.164
		C463.402,425.804,458.077,408.73,449.322,395.593z M167.699,258.545c-9.005-17.146-15.552-37.895-19.955-61.052h4.975v-29.161
		h-9.063c-0.343-4.703-0.522-9.435-0.522-14.18c-0.028-33.228,8.562-66.555,26.452-90.978c8.94-12.236,20.148-22.292,33.92-29.368
		c9.67-4.96,20.728-8.362,33.178-10.02v5.375h31.219v-5.732c15.753,1.53,29.297,5.303,40.754,10.971
		c21.427,10.642,36.229,27.56,45.971,48.337c9.713,20.741,14.116,45.321,14.108,70.214c0,5.125-0.214,10.264-0.572,15.381h-8.892
		v29.161h5.189c-6.175,35.615-16.796,63.596-32.348,82.83c-8.884,11.014-19.312,19.283-31.791,24.937
		c-12.472,5.632-27.081,8.655-44.356,8.662c-17.139-0.015-31.641-3.424-44.12-9.577C193.172,295.11,178.735,279.529,167.699,258.545
		z M115.238,479.109c-17.054-4.61-30.469-9.678-39.267-14.216c-4.388-2.251-7.612-4.396-9.398-5.982
		c-0.765-0.657-1.194-1.164-1.408-1.458c-0.272-3.53-0.436-6.926-0.436-10.149c0.022-18.969,4.51-32.542,11.343-42.92
		c5.146-7.783,11.736-13.837,19.24-18.747c11.236-7.361,24.551-12.007,37.194-15.416c0.229-0.064,0.444-0.108,0.665-0.172
		l39.124,120.282C150.489,487.342,131.205,483.433,115.238,479.109z M184.331,491.824l-40.496-124.469
		c8.27-1.973,15.874-3.674,22.106-5.847c5.21-1.844,10.935-4.274,16.503-7.175l38.281,140.55
		C207.98,494.189,195.844,493.146,184.331,491.824z M199.955,376.86l-7.726-28.36c3.981-2.802,7.634-5.947,10.542-9.749
		c2.923-3.831,5.168-8.634,5.168-14.109c0-0.564,0-0.915,0-1.208c0-0.4,0-0.65,0-0.7c0-0.486,0-1.215,0-2.602
		c14.108,6.382,30.09,9.899,48.03,9.885c17.94,0.007,33.935-3.081,48.101-8.984c0,0.843,0,1.429,0,1.872c0,0.966,0,1.158,0,1.023
		c0,0.228,0,0.372,0,0.714c-0.014,5.303,2.051,10.078,4.874,13.888c2.316,3.102,5.138,5.746,8.248,8.133l-5.789,25.566
		c-11.457,1.544-36.551,4.631-54.248,4.631C238.686,376.86,211.112,376.86,199.955,376.86z M294.927,494.704l32.099-141.773
		c6.118,3.344,12.672,6.196,18.89,8.526c8.048,2.98,18.197,5.003,29.304,7.89c0.136,0.036,0.279,0.079,0.422,0.115l-43.613,121.896
		C320.343,492.796,307.928,493.918,294.927,494.704z M446.835,457.431l-0.693,0.822c-1.186,1.2-3.581,3.001-6.948,4.924
		c-11.871,6.855-35.3,15.267-66.748,21.664c-8.756,1.794-18.204,3.416-28.167,4.874l41.954-117.272
		c13.366,4.088,26.931,9.735,37.609,18.697c6.847,5.718,12.586,12.715,16.732,21.749c4.139,9.042,6.698,20.227,6.698,34.443
		C447.271,450.534,447.114,453.914,446.835,457.431z"/>
	<path class="st0" d="M237.842,163.83c0-15.896-8.462-19.026-22.199-21.149c-19.869-3.052-39.567,4.338-41.254,16.932
		c-2.116,15.852,3.616,31.548,15.867,34.9C213.513,200.845,237.842,183.928,237.842,163.83z"/>
	<path class="st0" d="M297.694,142.68c-13.752,2.123-22.2,5.253-22.2,21.149c0,20.098,24.329,37.015,47.586,30.683
		c12.25-3.353,17.982-19.048,15.867-34.9C337.275,147.019,317.577,139.628,297.694,142.68z"/>
	<polygon class="st0" points="289.674,122.59 221.976,122.59 255.825,140.558 	"/>
	<path class="st0" d="M258.469,203.496c-4.388,0-7.934,3.552-7.934,7.934c0,4.374,3.545,7.926,7.934,7.926
		c4.374,0,7.934-3.553,7.934-7.926C266.403,207.048,262.843,203.496,258.469,203.496z"/>
	<path class="st0" d="M236.784,230.992c-4.074,0-7.404,3.317-7.404,7.404c0,4.096,3.331,7.398,7.404,7.398
		c4.088,0,7.404-3.302,7.404-7.398C244.189,234.308,240.873,230.992,236.784,230.992z"/>
	<path class="st0" d="M236.784,264.834c-4.074,0-7.404,3.309-7.404,7.404c0,4.095,3.331,7.404,7.404,7.404
		c4.088,0,7.404-3.31,7.404-7.404C244.189,268.143,240.873,264.834,236.784,264.834z"/>
	<path class="st0" d="M282.269,230.992c-4.088,0-7.404,3.317-7.404,7.404c0,4.096,3.316,7.398,7.404,7.398
		c4.088,0,7.405-3.302,7.405-7.398C289.674,234.308,286.357,230.992,282.269,230.992z"/>
	<path class="st0" d="M282.269,264.834c-4.088,0-7.404,3.309-7.404,7.404c0,4.095,3.316,7.404,7.404,7.404
		c4.088,0,7.405-3.31,7.405-7.404C289.674,268.143,286.357,264.834,282.269,264.834z"/>
	<path class="st0" d="M232.553,106.187c4.388,0,7.948-3.538,7.948-7.912c0-4.395-3.559-7.948-7.948-7.948
		c-4.374,0-7.92,3.553-7.92,7.948C224.634,102.649,228.179,106.187,232.553,106.187z"/>
	<path class="st0" d="M200.448,81.378c0,4.374,3.544,7.912,7.919,7.912c4.388,0,7.948-3.538,7.948-7.912
		c0-4.395-3.559-7.948-7.948-7.948C203.992,73.431,200.448,76.983,200.448,81.378z"/>
	<path class="st0" d="M274.865,106.187c4.388,0,7.934-3.538,7.934-7.912c0-4.395-3.545-7.948-7.934-7.948
		c-4.388,0-7.934,3.553-7.934,7.948C266.931,102.649,270.476,106.187,274.865,106.187z"/>
	<path class="st0" d="M296.206,90.206c4.388,0,7.934-3.538,7.934-7.912c0-4.395-3.545-7.948-7.934-7.948s-7.933,3.552-7.933,7.948
		C288.274,86.668,291.818,90.206,296.206,90.206z"/>
	<path class="st0" d="M202.878,62.76c4.388,0,7.947-3.538,7.947-7.912c0-4.395-3.559-7.947-7.947-7.947
		c-4.374,0-7.919,3.552-7.919,7.947C194.959,59.222,198.504,62.76,202.878,62.76z"/>
	<path class="st0" d="M299.866,59.101c4.388,0,7.934-3.538,7.934-7.912c0-4.395-3.545-7.948-7.934-7.948s-7.933,3.552-7.933,7.948
		C291.933,55.563,295.477,59.101,299.866,59.101z"/>
	<polygon class="st0" points="186.024,249.496 200.834,266.414 221.976,211.43 	"/>
	<polygon class="st0" points="318.22,266.414 333.029,249.496 297.064,211.43 	"/>
	<path class="st0" d="M423.049,431.751c6.104-1.215,4.874-8.541,0-10.371c-4.874-1.83-7.319,4.882-11.593,3.659
		c-4.274-1.222,1.83-14.638-3.045-15.245c-4.874-0.608-8.734,6.218-7.319,14.638c0.615,3.659-3.659,6.096-8.541,7.319
		c-4.882,1.222-6.712,7.926-0.608,10.978c4.26,2.13,6.096-0.615,5.489,7.926c-0.608,8.541,2.437,14.637,7.926,13.415
		c5.489-1.222,1.222-15.245,3.052-17.682c1.83-2.437,4.267,4.267,8.534,4.874c4.267,0.608,3.052-6.704-0.607-9.756
		C412.678,438.455,416.945,432.966,423.049,431.751z"/>
	<path class="st0" d="M379.136,444.252c-2.53,0-4.574,2.044-4.574,4.574c0,2.53,2.044,4.574,4.574,4.574
		c2.53,0,4.574-2.044,4.574-4.574C383.71,446.296,381.666,444.252,379.136,444.252z"/>
	<path class="st0" d="M396.054,403.691c1.772,0,3.209-1.429,3.209-3.202c0-1.765-1.437-3.202-3.209-3.202
		c-1.766,0-3.202,1.437-3.202,3.202C392.852,402.262,394.288,403.691,396.054,403.691z"/>
	<path class="st0" d="M330.642,431.136c-1.851,0-3.352,1.501-3.352,3.359c0,1.851,1.501,3.352,3.352,3.352
		c1.858,0,3.359-1.501,3.359-3.352C334.001,432.637,332.5,431.136,330.642,431.136z"/>
	<path class="st0" d="M347.424,401.29c-3.009,0-5.453,2.437-5.453,5.453s2.444,5.453,5.453,5.453c3.009,0,5.453-2.437,5.453-5.453
		S350.433,401.29,347.424,401.29z"/>
	<circle class="st0" cx="427.623" cy="455.23" r="2.745"/>
</g>
</svg>