<?xml version="1.0" encoding="utf-8"?>

<!-- Uploaded to: SVG Repo, www.svgrepo.com, Generator: SVG Repo Mixer Tools -->
<svg version="1.1" id="Icons" xmlns="http://www.w3.org/2000/svg" xmlns:xlink="http://www.w3.org/1999/xlink" 
	 viewBox="0 0 32 32" xml:space="preserve">
<style type="text/css">
	.st0{fill:none;stroke:#000000;stroke-width:2;stroke-linecap:round;stroke-linejoin:round;stroke-miterlimit:10;}
</style>
<polyline class="st0" points="1,23 1,9 16,1 31,9 31,23 "/>
<polygon class="st0" points="16,15 1,23 16,31 31,23 "/>
<polyline class="st0" points="16,1 16,15 21,9 24,15 26,13 31,23 "/>
<path class="st0" d="M6.9,15.9l3.8-2.2c0.8-0.4,1.3-1.3,1.3-2.2v-0.1c0-1.9-2.1-3.1-3.8-2.1l0,0C7.5,9.7,7,10.5,7,11.4V13l-1.3,0.6
	C5.3,13.9,5,14.3,5,14.8v0C5,15.8,6.1,16.4,6.9,15.9z"/>
</svg>